<?xml version="1.0" encoding="UTF-8" standalone="no"?>
<!DOCTYPE svg PUBLIC "-//W3C//DTD SVG 1.1//EN" "http://www.w3.org/Graphics/SVG/1.1/DTD/svg11.dtd">
<svg width="100%" height="100%" viewBox="0 0 500 100" version="1.1" xmlns="http://www.w3.org/2000/svg" xmlns:xlink="http://www.w3.org/1999/xlink" xml:space="preserve" xmlns:serif="http://www.serif.com/" style="fill-rule:evenodd;clip-rule:evenodd;stroke-linejoin:round;stroke-miterlimit:2;">
    <g transform="matrix(1.333333,0,0,1.333333,93.333333,24.365823)">
        <g transform="matrix(1,0,0,1,-3.254339,-18.5247)">
            <g>
                <g transform="matrix(1,0,0,1,1.04956,57.738407)">
                    <g>
                        <path d="M5.641,0L5.641,-36.297L45.562,-36.297L45.562,-34.047L8.266,-34.047L8.266,-19.469L44.688,-19.469L44.688,-17.219L8.266,-17.219L8.266,-2.312L46.125,-2.312L46.125,0L5.641,0Z" style="fill:rgb(255,249,232);fill-rule:nonzero;"/>
                    </g>
                </g>
            </g>
            <g>
                <g transform="matrix(1,0,0,1,51.182632,57.738407)">
                    <g>
                        <path d="M2,-34.109L2,-36.297L24.656,-36.297L24.656,-34.109L14.641,-34.109L14.641,-2.188L24.656,-2.188L24.656,0L2,0L2,-2.188L11.891,-2.188L11.891,-34.109L2,-34.109Z" style="fill:rgb(255,249,232);fill-rule:nonzero;"/>
                    </g>
                </g>
            </g>
            <g>
                <g transform="matrix(1,0,0,1,77.782576,57.738407)">
                    <g>
                        <path d="M26.109,0L5.641,0L5.641,-36.297L26.109,-36.297C27.359,-36.297 28.648,-36.273 29.984,-36.234C31.316,-36.191 32.504,-36.066 33.547,-35.859C36.641,-35.234 39.164,-34.172 41.125,-32.672C43.082,-31.172 44.52,-29.406 45.438,-27.375C46.352,-25.352 46.812,-23.195 46.812,-20.906L46.812,-16.281C46.812,-14.02 46.383,-11.836 45.531,-9.734C44.676,-7.629 43.332,-5.781 41.5,-4.188C39.664,-2.602 37.266,-1.438 34.297,-0.688C33.211,-0.395 31.922,-0.207 30.422,-0.125C28.922,-0.039 27.484,0 26.109,0ZM44.188,-16.281L44.188,-20.844C44.188,-22.844 43.82,-24.707 43.094,-26.438C42.363,-28.176 41.188,-29.672 39.562,-30.922C37.938,-32.172 35.785,-33.066 33.109,-33.609C32.191,-33.816 31.098,-33.922 29.828,-33.922L8.266,-33.922L8.266,-2.375L26.109,-2.375C27.316,-2.375 28.617,-2.426 30.016,-2.531C31.41,-2.633 32.566,-2.789 33.484,-3C36.117,-3.625 38.219,-4.594 39.781,-5.906C41.344,-7.227 42.469,-8.785 43.156,-10.578C43.844,-12.367 44.188,-14.27 44.188,-16.281Z" style="fill:rgb(255,249,232);fill-rule:nonzero;"/>
                    </g>
                </g>
            </g>
            <g>
                <g transform="matrix(1,0,0,1,185.376973,57.738407)">
                    <g>
                        <path d="M24.469,0.812C23.719,0.812 22.676,0.758 21.344,0.656C20.008,0.551 18.535,0.414 16.922,0.25C15.316,0.082 13.723,-0.102 12.141,-0.312C10.555,-0.52 9.117,-0.719 7.828,-0.906C6.535,-1.094 5.531,-1.27 4.812,-1.438L4.812,-3.938C5.613,-3.727 6.68,-3.508 8.016,-3.281C9.348,-3.051 10.805,-2.832 12.391,-2.625C13.973,-2.414 15.555,-2.219 17.141,-2.031C18.734,-1.844 20.176,-1.695 21.469,-1.594C22.758,-1.488 23.758,-1.438 24.469,-1.438C25.938,-1.438 27.484,-1.469 29.109,-1.531C30.734,-1.594 32.316,-1.77 33.859,-2.062C35.398,-2.352 36.773,-2.82 37.984,-3.469C39.203,-4.113 40.125,-5.023 40.75,-6.203C41,-6.66 41.145,-7.273 41.188,-8.047C41.227,-8.816 41.25,-9.535 41.25,-10.203C41.25,-11.535 40.852,-12.617 40.062,-13.453C39.27,-14.285 38.211,-14.93 36.891,-15.391C35.578,-15.859 34.109,-16.195 32.484,-16.406C30.859,-16.613 29.211,-16.758 27.547,-16.844C26.367,-16.926 25.207,-16.977 24.062,-17C22.914,-17.02 21.758,-17.051 20.594,-17.094C18.344,-17.258 16.109,-17.551 13.891,-17.969C11.68,-18.383 9.773,-19.094 8.172,-20.094C6.566,-21.094 5.469,-22.531 4.875,-24.406C4.707,-24.863 4.613,-25.5 4.594,-26.312C4.57,-27.133 4.582,-27.797 4.625,-28.297C4.707,-30.422 5.375,-32.066 6.625,-33.234C7.883,-34.398 9.492,-35.242 11.453,-35.766C13.41,-36.297 15.535,-36.613 17.828,-36.719C20.129,-36.82 22.363,-36.875 24.531,-36.875C25.406,-36.875 26.582,-36.832 28.062,-36.75C29.551,-36.664 31.172,-36.523 32.922,-36.328C34.672,-36.141 36.398,-35.93 38.109,-35.703C39.828,-35.473 41.375,-35.191 42.75,-34.859L42.75,-32.609C41.582,-32.941 40.098,-33.223 38.297,-33.453C36.504,-33.68 34.68,-33.891 32.828,-34.078C30.973,-34.266 29.281,-34.398 27.75,-34.484C26.227,-34.566 25.156,-34.609 24.531,-34.609C22.82,-34.609 20.988,-34.586 19.031,-34.547C17.07,-34.504 15.211,-34.305 13.453,-33.953C11.703,-33.598 10.254,-32.984 9.109,-32.109C7.961,-31.234 7.348,-29.961 7.266,-28.297C7.223,-27.879 7.223,-27.301 7.266,-26.562C7.305,-25.832 7.367,-25.301 7.453,-24.969C7.953,-23.426 8.91,-22.289 10.328,-21.562C11.742,-20.832 13.391,-20.344 15.266,-20.094C17.148,-19.844 19.051,-19.656 20.969,-19.531C22.051,-19.488 23.164,-19.457 24.312,-19.438C25.457,-19.414 26.555,-19.363 27.609,-19.281C29.609,-19.156 31.586,-18.938 33.547,-18.625C35.504,-18.312 37.266,-17.844 38.828,-17.219C40.398,-16.594 41.656,-15.723 42.594,-14.609C43.531,-13.504 44,-12.078 44,-10.328C44,-9.367 43.957,-8.391 43.875,-7.391C43.789,-6.391 43.562,-5.551 43.188,-4.875C42.395,-3.582 41.312,-2.562 39.938,-1.812C38.562,-1.062 37.004,-0.5 35.266,-0.125C33.535,0.25 31.742,0.5 29.891,0.625C28.035,0.75 26.227,0.812 24.469,0.812Z" style="fill:rgb(255,249,232);fill-rule:nonzero;"/>
                    </g>
                </g>
            </g>
            <g>
                <path d="M158.113,8.938C158.113,9.645 157.336,11.254 156.352,12.574C154.934,14.457 152.883,16.062 150.363,17.227C148.277,18.199 147.617,18.559 146.418,19.363C143.625,21.223 141.234,23.727 139.605,26.5C138.789,27.902 138.836,27.82 137.961,29.691C136.367,33.145 133.57,35.988 130.703,37.09C130.379,37.211 129.961,37.32 129.781,37.32C129.566,37.32 129.445,37.379 129.445,37.5C129.445,37.605 129.551,37.68 129.719,37.68C130.559,37.68 132.516,38.688 133.812,39.789C135.789,41.469 136.797,42.887 138.539,46.434C139.953,49.328 141.008,50.824 142.988,52.805C144.965,54.785 146.465,55.84 149.355,57.254C152.906,58.996 154.324,60.004 156.004,61.98C157.105,63.277 158.113,65.234 158.113,66.07C158.113,66.238 158.188,66.348 158.293,66.348C158.414,66.348 158.473,66.227 158.473,66.012C158.473,65.832 158.582,65.414 158.703,65.09C159.805,62.223 162.648,59.426 166.102,57.832C167.973,56.957 167.891,57.004 169.293,56.188C172.066,54.555 174.57,52.168 176.43,49.375C177.234,48.176 177.594,47.516 178.566,45.43C179.73,42.91 181.336,40.859 183.219,39.441C184.586,38.422 186.148,37.68 186.926,37.68C187.395,37.68 187.312,37.391 186.832,37.344C185.453,37.199 183.102,35.711 181.445,33.938C180.281,32.676 179.371,31.309 178.625,29.691C177.75,27.82 177.797,27.902 176.984,26.5C175.352,23.727 172.965,21.223 170.168,19.363C168.969,18.559 168.309,18.199 166.223,17.227C163.703,16.062 161.652,14.457 160.238,12.574C159.254,11.254 158.473,9.645 158.473,8.938C158.473,8.758 158.402,8.648 158.293,8.648C158.188,8.648 158.113,8.758 158.113,8.938ZM158.473,10.715C158.473,10.773 158.391,10.809 158.293,10.809C158.09,10.809 158.078,10.785 158.188,10.508C158.246,10.352 158.281,10.34 158.367,10.473C158.426,10.559 158.473,10.664 158.473,10.715ZM158.57,11.324C158.605,11.469 158.535,11.527 158.305,11.527C158.008,11.527 157.887,11.312 158.078,11.121C158.223,10.977 158.535,11.098 158.57,11.324ZM158.715,11.816C158.715,11.84 158.75,11.949 158.785,12.055C158.844,12.211 158.762,12.25 158.305,12.25C157.719,12.25 157.719,12.25 157.824,11.961C157.875,11.84 158.043,11.77 158.305,11.77C158.535,11.77 158.715,11.793 158.715,11.816ZM158.953,12.535C158.953,12.559 158.988,12.668 159.027,12.777C159.086,12.945 158.977,12.969 158.305,12.969C157.875,12.969 157.516,12.945 157.516,12.922C157.516,12.598 157.707,12.488 158.305,12.488C158.664,12.488 158.953,12.512 158.953,12.535ZM157.168,13.004C157.047,13.113 157.035,13.102 157.105,12.934C157.141,12.812 157.215,12.754 157.25,12.789C157.285,12.824 157.25,12.922 157.168,13.004ZM159.48,12.922C159.516,13.016 159.504,13.062 159.434,13.027C159.363,12.992 159.312,12.91 159.312,12.836C159.312,12.668 159.398,12.703 159.48,12.922ZM159.195,13.449C159.312,13.676 159.289,13.688 158.293,13.688C157.297,13.688 157.273,13.676 157.395,13.449C157.504,13.242 157.645,13.207 158.293,13.207C158.941,13.207 159.086,13.242 159.195,13.449ZM156.938,13.711C156.855,13.797 156.793,13.809 156.793,13.734C156.793,13.664 156.832,13.566 156.879,13.531C156.914,13.484 156.984,13.473 157.023,13.508C157.047,13.543 157.012,13.641 156.938,13.711ZM159.793,13.699C159.793,13.773 159.746,13.785 159.672,13.746C159.613,13.711 159.555,13.617 159.555,13.555C159.555,13.484 159.613,13.473 159.672,13.508C159.746,13.543 159.793,13.641 159.793,13.699ZM159.41,14.07C159.695,14.359 159.527,14.406 158.293,14.406C157.059,14.406 156.891,14.359 157.18,14.07C157.371,13.879 159.219,13.879 159.41,14.07ZM156.723,14.348C156.676,14.445 156.602,14.527 156.543,14.527C156.496,14.527 156.469,14.445 156.508,14.348C156.555,14.25 156.625,14.168 156.688,14.168C156.734,14.168 156.758,14.25 156.723,14.348ZM160.082,14.348C160.117,14.445 160.094,14.527 160.047,14.527C159.984,14.527 159.914,14.445 159.863,14.348C159.828,14.25 159.852,14.168 159.902,14.168C159.961,14.168 160.031,14.25 160.082,14.348ZM156.109,14.469C156.074,14.574 156.016,14.637 155.992,14.598C155.953,14.562 155.965,14.492 156.016,14.418C156.121,14.227 156.195,14.266 156.109,14.469ZM160.609,14.586C160.574,14.625 160.5,14.562 160.465,14.445C160.395,14.277 160.406,14.266 160.523,14.371C160.609,14.457 160.645,14.551 160.609,14.586ZM159.793,14.887C159.914,15.129 159.891,15.129 158.293,15.129C156.699,15.129 156.676,15.129 156.793,14.887C156.914,14.672 157.047,14.648 158.293,14.648C159.543,14.648 159.672,14.672 159.793,14.887ZM156.434,15.008C156.363,15.141 156.254,15.246 156.184,15.246C156.109,15.246 156.109,15.164 156.195,15.008C156.266,14.875 156.375,14.766 156.445,14.766C156.52,14.766 156.52,14.852 156.434,15.008ZM160.395,15.008C160.477,15.164 160.477,15.246 160.406,15.246C160.332,15.246 160.227,15.141 160.152,15.008C160.07,14.852 160.07,14.766 160.141,14.766C160.215,14.766 160.32,14.875 160.395,15.008ZM155.836,15.129C155.836,15.188 155.773,15.246 155.703,15.246C155.645,15.246 155.617,15.188 155.656,15.129C155.691,15.055 155.75,15.008 155.785,15.008C155.812,15.008 155.836,15.055 155.836,15.129ZM160.934,15.129C160.969,15.188 160.945,15.246 160.887,15.246C160.812,15.246 160.754,15.188 160.754,15.129C160.754,15.055 160.777,15.008 160.801,15.008C160.836,15.008 160.898,15.055 160.934,15.129ZM155.125,15.402C155.008,15.512 154.996,15.5 155.066,15.332C155.102,15.211 155.176,15.152 155.211,15.188C155.246,15.223 155.211,15.32 155.125,15.402ZM161.52,15.32C161.555,15.414 161.543,15.465 161.473,15.426C161.402,15.391 161.352,15.309 161.352,15.234C161.352,15.066 161.438,15.102 161.52,15.32ZM160.082,15.547C160.141,15.703 159.891,15.727 158.293,15.727C156.699,15.727 156.445,15.703 156.508,15.547C156.566,15.402 156.879,15.367 158.293,15.367C159.711,15.367 160.02,15.402 160.082,15.547ZM156.172,15.633C156.148,15.703 156.051,15.801 155.98,15.824C155.895,15.848 155.859,15.801 155.906,15.68C155.992,15.465 156.242,15.414 156.172,15.633ZM160.68,15.68C160.73,15.801 160.691,15.848 160.609,15.824C160.43,15.762 160.332,15.488 160.488,15.488C160.551,15.488 160.645,15.57 160.68,15.68ZM155.477,15.789C155.391,15.895 155.293,15.941 155.27,15.918C155.188,15.836 155.355,15.605 155.5,15.605C155.57,15.605 155.57,15.68 155.477,15.789ZM161.293,15.738C161.426,15.941 161.281,15.992 161.113,15.789C161.016,15.68 161.016,15.605 161.09,15.605C161.16,15.605 161.258,15.668 161.293,15.738ZM154.875,15.848C154.875,15.906 154.816,15.969 154.742,15.969C154.684,15.969 154.66,15.906 154.695,15.848C154.73,15.773 154.793,15.727 154.828,15.727C154.852,15.727 154.875,15.773 154.875,15.848ZM161.891,15.848C161.93,15.906 161.906,15.969 161.844,15.969C161.773,15.969 161.711,15.906 161.711,15.848C161.711,15.773 161.738,15.727 161.762,15.727C161.797,15.727 161.855,15.773 161.891,15.848ZM160.008,16.039C160.297,16.098 160.418,16.219 160.574,16.613C160.68,16.879 161.125,17.73 161.555,18.484C165.418,25.289 171.238,30.984 177.941,34.57C178.793,35.027 179.527,35.398 179.586,35.398C179.742,35.398 179.824,36.094 179.824,37.5C179.824,39.395 179.789,39.539 179.18,39.777C178.914,39.887 178.062,40.328 177.305,40.762C170.504,44.625 164.809,50.441 161.219,57.148C160.766,58 160.395,58.73 160.395,58.789C160.395,58.945 159.695,59.031 158.293,59.031C156.484,59.031 156.242,58.973 156.074,58.504C155.715,57.461 153.41,53.715 152.008,51.895C151.215,50.852 149.188,48.559 148.219,47.574C147.234,46.602 144.941,44.578 143.898,43.785C142.074,42.383 138.332,40.078 137.289,39.719C136.82,39.551 136.762,39.309 136.762,37.5C136.762,36.094 136.848,35.398 137,35.398C137.062,35.398 137.793,35.027 138.645,34.57C145.352,30.984 151.168,25.289 155.031,18.484C155.461,17.73 155.906,16.879 156.016,16.602C156.148,16.266 156.301,16.086 156.469,16.051C156.891,15.969 159.613,15.953 160.008,16.039ZM155.477,17.047C153.102,21.773 149.082,26.656 144.594,30.266C142.52,31.945 139.855,33.66 137.637,34.789C136.883,35.16 136.547,35.086 137.254,34.703C142.914,31.609 147.641,27.578 151.625,22.469C152.727,21.043 154.359,18.559 155.09,17.168C155.797,15.812 156.148,15.703 155.477,17.047ZM161.496,17.168C162.227,18.559 163.859,21.043 164.965,22.469C166.414,24.328 167.289,25.301 169.199,27.184C172.316,30.254 175.398,32.543 179.332,34.703C180.043,35.086 179.707,35.16 178.961,34.789C174.297,32.438 169.508,28.609 166.113,24.496C165.371,23.598 164.629,22.672 164.461,22.445C163.199,20.73 161.941,18.691 161.113,17.047C160.441,15.703 160.789,15.812 161.496,17.168ZM155.234,16.277C155.234,16.422 154.215,18.148 153.125,19.816C152.379,20.957 150.664,23.262 149.922,24.102C146.324,28.168 142.941,31.008 138.73,33.516C137.996,33.961 137.312,34.344 137.207,34.391C136.848,34.523 136.988,34.262 137.398,34.031C141.68,31.551 146,27.926 149.812,23.609C151.109,22.145 153.219,19.219 154.516,17.07C154.984,16.316 155.234,16.039 155.234,16.277ZM162.074,17.07C163.367,19.219 165.48,22.145 166.773,23.609C170.59,27.926 174.906,31.551 179.203,34.031C179.598,34.262 179.742,34.523 179.383,34.391C179.273,34.344 178.59,33.961 177.859,33.516C173.648,31.008 170.266,28.168 166.668,24.102C165.922,23.262 164.207,20.957 163.465,19.816C162.371,18.148 161.352,16.422 161.352,16.277C161.352,16.039 161.605,16.316 162.074,17.07ZM154.133,17.129C150.773,22.637 145.949,27.781 140.602,31.586C139.055,32.676 137.121,33.875 137.121,33.746C137.121,33.684 137.781,33.18 138.586,32.629C141.598,30.566 143.996,28.551 146.598,25.934C149.719,22.805 150.953,21.316 153.578,17.562C154.059,16.879 154.492,16.328 154.539,16.328C154.586,16.328 154.406,16.688 154.133,17.129ZM163.402,18.125C165.934,21.688 166.906,22.84 169.988,25.934C172.594,28.551 174.992,30.566 178.004,32.629C178.805,33.18 179.465,33.684 179.465,33.746C179.465,33.875 177.535,32.676 175.988,31.586C171.91,28.684 167.625,24.496 164.82,20.645C163.477,18.809 161.844,16.266 162.059,16.34C162.121,16.363 162.73,17.168 163.402,18.125ZM153.664,16.891C153.328,17.441 152.082,19.184 151.191,20.332C148.891,23.344 145.133,27.207 142.34,29.438C139.988,31.309 137.387,33.191 137.277,33.086C137.254,33.047 137.672,32.688 138.227,32.27C144.188,27.746 148.602,23.332 153.305,17.129C153.902,16.352 154.059,16.242 153.664,16.891ZM163.285,17.129C167.984,23.332 172.402,27.746 178.363,32.27C178.914,32.688 179.332,33.047 179.309,33.086C179.273,33.109 178.793,32.832 178.242,32.449C172.594,28.516 168,24.004 163.98,18.426C162.695,16.652 162.18,15.68 163.285,17.129ZM153.23,16.711C153.16,16.793 152.824,17.238 152.465,17.707C148.602,22.734 144.297,27.121 139.699,30.734C137.949,32.113 137.363,32.543 137.363,32.484C137.363,32.449 138.539,31.406 139.965,30.168C144.223,26.465 147.738,22.938 151.445,18.629C152.414,17.492 153.242,16.566 153.281,16.566C153.316,16.566 153.293,16.641 153.23,16.711ZM165.145,18.629C168.852,22.938 172.363,26.465 176.621,30.168C179.98,33.086 180.043,33.215 176.887,30.734C172.293,27.121 167.984,22.734 164.125,17.707C163.766,17.238 163.43,16.793 163.355,16.711C163.297,16.641 163.273,16.566 163.309,16.566C163.344,16.566 164.172,17.492 165.145,18.629ZM151.133,18.512C147.223,23.031 143.91,26.344 139.223,30.41C137.445,31.957 137.531,31.848 140.121,29.344C143.469,26.102 146.488,23.07 149.824,19.59C151.312,18.066 152.535,16.809 152.559,16.809C152.582,16.809 151.949,17.574 151.133,18.512ZM171.777,24.734C172.941,25.887 175.051,27.961 176.469,29.344C179.059,31.848 179.141,31.957 177.367,30.41C172.629,26.297 169.172,22.84 165.441,18.484C163.98,16.77 163.992,16.781 166.824,19.688C168.395,21.305 170.625,23.57 171.777,24.734ZM149.703,19.289C145.699,23.418 138.562,30.469 138.562,30.301C138.562,29.895 150.699,17.766 151.109,17.766C151.156,17.766 150.531,18.449 149.703,19.289ZM166.785,18.871C169.328,21.184 178.027,30.016 178.027,30.301C178.027,30.434 175.914,28.383 171.73,24.184C167.578,20.047 165.359,17.766 165.48,17.766C165.516,17.766 166.102,18.27 166.785,18.871ZM149.477,18.75C148.289,19.84 143.348,24.746 141.031,27.137C138.887,29.328 138.812,29.391 139.738,28.238C141.906,25.539 145.652,21.75 148.445,19.41C150.09,18.043 150.57,17.742 149.477,18.75ZM168.309,19.566C170.926,21.738 174.727,25.598 176.852,28.238C177.773,29.391 177.703,29.328 175.555,27.137C173.504,25.023 168.777,20.32 167.109,18.727C166.246,17.898 166.605,18.148 168.309,19.566ZM148.938,18.594C148.867,18.641 148.23,19.195 147.496,19.816C146.012,21.078 142.387,24.652 141.129,26.09C140.672,26.617 140.121,27.242 139.895,27.469L139.496,27.902L139.773,27.484C141.598,24.699 145.016,21.258 148.207,18.988C148.852,18.535 149.215,18.332 148.938,18.594ZM169.113,19.531C172.004,21.699 175.16,24.953 176.816,27.484L177.09,27.902L176.695,27.469C176.469,27.242 175.914,26.617 175.461,26.09C174.199,24.652 170.578,21.078 169.09,19.816C168.371,19.195 167.723,18.641 167.648,18.57C167.363,18.281 168.094,18.762 169.113,19.531ZM147.09,19.422C144.281,21.629 141.668,24.281 139.844,26.762C139.461,27.289 139.785,26.727 140.398,25.805C141.223,24.555 142.305,23.285 143.562,22.086C144.715,20.957 145.133,20.621 146.465,19.699C147.426,19.039 147.762,18.895 147.09,19.422ZM170.758,20.152C172.582,21.438 174.871,23.812 176.191,25.805C176.805,26.727 177.125,27.289 176.742,26.762C175.242,24.723 172.785,22.121 170.758,20.453C170.289,20.059 169.727,19.59 169.496,19.41C169.113,19.086 169.113,19.074 169.449,19.266C169.652,19.387 170.242,19.781 170.758,20.152ZM136.223,34.32C136.188,34.379 136.078,34.441 136.008,34.441C135.922,34.441 135.934,34.391 136.043,34.32C136.27,34.176 136.316,34.176 136.223,34.32ZM180.605,34.418C180.57,34.453 180.473,34.418 180.391,34.332C180.281,34.211 180.293,34.199 180.461,34.273C180.582,34.309 180.641,34.379 180.605,34.418ZM136.641,34.621C136.559,34.727 136.461,34.777 136.438,34.75C136.355,34.668 136.523,34.441 136.664,34.441C136.738,34.441 136.738,34.512 136.641,34.621ZM180.125,34.57C180.258,34.777 180.113,34.824 179.945,34.621C179.848,34.512 179.848,34.441 179.922,34.441C179.992,34.441 180.09,34.5 180.125,34.57ZM136.043,34.906C136.043,34.969 135.957,35.051 135.852,35.086C135.684,35.148 135.672,35.137 135.801,34.98C135.969,34.777 136.043,34.75 136.043,34.906ZM180.785,34.98C180.918,35.137 180.906,35.148 180.738,35.086C180.629,35.051 180.547,34.969 180.547,34.906C180.547,34.75 180.617,34.777 180.785,34.98ZM136.641,35.148C136.641,35.207 136.559,35.281 136.461,35.328C136.281,35.387 136.223,35.27 136.367,35.125C136.473,35.004 136.641,35.016 136.641,35.148ZM180.281,35.254C180.305,35.34 180.258,35.375 180.137,35.328C180.031,35.293 179.945,35.195 179.945,35.137C179.945,34.98 180.223,35.074 180.281,35.254ZM135.441,35.207C135.441,35.23 135.359,35.293 135.25,35.328C135.156,35.363 135.105,35.352 135.141,35.281C135.215,35.16 135.441,35.113 135.441,35.207ZM181.445,35.281C181.48,35.352 181.434,35.363 181.336,35.328C181.121,35.242 181.086,35.16 181.254,35.16C181.324,35.16 181.41,35.207 181.445,35.281ZM135.875,35.578C135.621,35.773 135.492,35.734 135.621,35.531C135.66,35.461 135.789,35.398 135.898,35.398C136.078,35.41 136.078,35.422 135.875,35.578ZM180.965,35.531C181.098,35.734 180.965,35.773 180.715,35.578C180.508,35.422 180.508,35.41 180.688,35.398C180.797,35.398 180.93,35.461 180.965,35.531ZM135.203,35.879C135.105,35.941 135,35.965 134.973,35.926C134.938,35.891 134.988,35.82 135.082,35.758C135.18,35.699 135.285,35.676 135.309,35.711C135.348,35.746 135.297,35.82 135.203,35.879ZM136.523,37.5C136.523,39.094 136.496,39.348 136.344,39.285C136.199,39.227 136.164,38.914 136.164,37.5C136.164,35.867 136.188,35.746 136.496,35.652C136.512,35.641 136.523,36.48 136.523,37.5ZM180.426,37.5C180.426,38.914 180.391,39.227 180.246,39.285C180.09,39.348 180.066,39.094 180.066,37.5C180.066,35.902 180.09,35.652 180.246,35.711C180.391,35.773 180.426,36.082 180.426,37.5ZM181.625,35.891C181.625,35.941 181.539,35.965 181.445,35.926C181.348,35.879 181.266,35.809 181.266,35.746C181.266,35.699 181.348,35.676 181.445,35.711C181.539,35.758 181.625,35.832 181.625,35.891ZM135.922,37.5C135.922,39.094 135.922,39.117 135.684,39C135.465,38.879 135.441,38.746 135.441,37.5C135.441,36.324 135.465,36.121 135.66,36.012C135.766,35.941 135.875,35.879 135.898,35.879C135.91,35.879 135.922,36.609 135.922,37.5ZM181.145,37.5C181.145,38.734 181.121,38.879 180.918,39C180.688,39.117 180.676,39.059 180.676,37.5C180.676,35.941 180.688,35.879 180.918,36C181.121,36.121 181.145,36.262 181.145,37.5ZM134.543,36.121C134.508,36.18 134.41,36.238 134.352,36.238C134.277,36.238 134.266,36.18 134.305,36.121C134.34,36.047 134.434,36 134.496,36C134.566,36 134.578,36.047 134.543,36.121ZM182.285,36.121C182.32,36.18 182.309,36.238 182.238,36.238C182.176,36.238 182.082,36.18 182.043,36.121C182.008,36.047 182.02,36 182.094,36C182.152,36 182.25,36.047 182.285,36.121ZM133.824,36.359C133.785,36.418 133.68,36.48 133.605,36.48C133.523,36.48 133.535,36.43 133.645,36.359C133.871,36.215 133.918,36.215 133.824,36.359ZM135.203,37.5C135.203,38.734 135.156,38.902 134.867,38.613C134.676,38.422 134.676,36.574 134.867,36.383C135.156,36.094 135.203,36.262 135.203,37.5ZM181.723,36.383C181.805,36.469 181.863,36.898 181.863,37.5C181.863,38.398 181.758,38.758 181.492,38.758C181.445,38.758 181.41,38.195 181.41,37.5C181.41,36.805 181.445,36.238 181.492,36.238C181.539,36.238 181.637,36.301 181.723,36.383ZM183.004,36.457C182.969,36.492 182.871,36.457 182.789,36.371C182.68,36.25 182.691,36.238 182.859,36.312C182.98,36.348 183.039,36.418 183.004,36.457ZM134.484,37.5C134.484,38.496 134.473,38.52 134.242,38.398C133.812,38.172 133.941,36.48 134.387,36.48C134.434,36.48 134.484,36.934 134.484,37.5ZM182.441,36.625C182.523,36.707 182.586,37.09 182.586,37.523C182.586,38.133 182.547,38.289 182.355,38.387C182.141,38.508 182.129,38.457 182.129,37.5C182.129,36.48 182.176,36.359 182.441,36.625ZM133.762,37.488C133.762,38.195 133.738,38.254 133.523,38.195C133.32,38.133 133.281,38.027 133.281,37.5C133.281,36.984 133.332,36.852 133.5,36.805C133.605,36.766 133.715,36.742 133.738,36.73C133.75,36.73 133.762,37.066 133.762,37.488ZM183.305,37.512C183.305,37.871 183.281,38.16 183.258,38.16C183.23,38.16 183.125,38.195 183.027,38.23C182.883,38.277 182.848,38.148 182.848,37.523C182.848,36.816 182.859,36.754 183.078,36.805C183.27,36.852 183.305,36.973 183.305,37.512ZM133.043,37.512C133.043,37.965 133.008,38.051 132.852,37.992C132.742,37.953 132.637,37.918 132.613,37.918C132.492,37.918 132.574,37.09 132.719,37.043C133.008,36.922 133.043,36.973 133.043,37.512ZM183.832,37.031C183.953,37.078 184.023,37.246 184.023,37.5C184.023,37.836 183.867,38.039 183.617,38.039C183.594,38.039 183.582,37.797 183.566,37.5C183.566,37.199 183.582,36.961 183.605,36.961C183.629,36.961 183.723,36.996 183.832,37.031ZM132.324,37.5C132.324,37.715 132.262,37.797 132.082,37.797C131.902,37.797 131.844,37.715 131.844,37.5C131.844,37.281 131.902,37.199 132.082,37.199C132.262,37.199 132.324,37.281 132.324,37.5ZM184.719,37.465C184.672,37.859 184.324,37.883 184.312,37.5C184.289,37.27 184.348,37.199 184.527,37.199C184.695,37.199 184.754,37.27 184.719,37.465ZM131.605,37.5C131.605,37.703 131.578,37.715 131.305,37.605C131.148,37.547 131.137,37.512 131.27,37.426C131.496,37.27 131.605,37.297 131.605,37.5ZM185.32,37.426C185.453,37.512 185.453,37.535 185.309,37.594C185.199,37.633 185.09,37.582 185.055,37.488C184.984,37.297 185.078,37.27 185.32,37.426ZM133.824,38.637C133.859,38.711 133.812,38.723 133.715,38.688C133.5,38.602 133.465,38.52 133.633,38.52C133.703,38.52 133.785,38.566 133.824,38.637ZM183.062,38.566C183.062,38.59 182.98,38.652 182.871,38.688C182.777,38.723 182.73,38.711 182.766,38.637C182.836,38.52 183.062,38.469 183.062,38.566ZM134.543,38.879C134.578,38.938 134.566,39 134.496,39C134.434,39 134.34,38.938 134.305,38.879C134.266,38.805 134.277,38.758 134.352,38.758C134.41,38.758 134.508,38.805 134.543,38.879ZM182.285,38.879C182.25,38.938 182.152,39 182.094,39C182.02,39 182.008,38.938 182.043,38.879C182.082,38.805 182.176,38.758 182.238,38.758C182.309,38.758 182.32,38.805 182.285,38.879ZM135.324,39.25C135.324,39.297 135.238,39.32 135.141,39.285C135.047,39.238 134.961,39.168 134.961,39.105C134.961,39.059 135.047,39.035 135.141,39.07C135.238,39.117 135.324,39.191 135.324,39.25ZM181.504,39.238C181.41,39.297 181.301,39.32 181.277,39.285C181.242,39.25 181.289,39.18 181.387,39.117C181.48,39.059 181.59,39.035 181.613,39.07C181.648,39.105 181.602,39.18 181.504,39.238ZM136.043,39.609C136.043,39.684 135.957,39.684 135.801,39.598C135.672,39.527 135.562,39.418 135.562,39.348C135.562,39.273 135.645,39.273 135.801,39.359C135.934,39.43 136.043,39.539 136.043,39.609ZM180.855,39.551C180.727,39.633 180.594,39.684 180.559,39.645C180.52,39.609 180.594,39.504 180.715,39.406C180.844,39.32 180.977,39.273 181.012,39.309C181.051,39.348 180.977,39.453 180.855,39.551ZM135.383,39.719C135.418,39.777 135.406,39.84 135.336,39.84C135.273,39.84 135.18,39.777 135.141,39.719C135.105,39.645 135.117,39.598 135.191,39.598C135.25,39.598 135.348,39.645 135.383,39.719ZM136.617,39.824C136.652,39.922 136.605,39.969 136.512,39.934C136.426,39.91 136.328,39.812 136.305,39.73C136.27,39.633 136.316,39.586 136.414,39.621C136.496,39.645 136.594,39.742 136.617,39.824ZM180.305,39.707C180.305,39.766 180.223,39.84 180.125,39.887C179.945,39.945 179.887,39.824 180.031,39.684C180.137,39.562 180.305,39.574 180.305,39.707ZM181.445,39.719C181.41,39.777 181.301,39.84 181.23,39.84C181.145,39.84 181.156,39.789 181.266,39.719C181.492,39.574 181.539,39.574 181.445,39.719ZM136.113,40.176C136.066,40.211 135.945,40.148 135.828,40.031C135.633,39.812 135.633,39.812 135.898,39.957C136.055,40.031 136.148,40.125 136.113,40.176ZM140.613,41.891C145.891,45.188 150.641,49.938 153.902,55.18C154.887,56.738 155.992,58.91 155.812,58.91C155.727,58.91 155.355,58.359 154.996,57.688C153.207,54.375 150.809,51.234 147.691,48.102C144.559,44.984 141.418,42.586 138.105,40.797C137.434,40.438 136.883,40.066 136.883,39.98C136.883,39.801 139.066,40.918 140.613,41.891ZM179.695,40.125C179.668,40.137 179.164,40.414 178.578,40.727C177.164,41.48 174.727,43.09 173.324,44.168C171.465,45.621 170.492,46.496 168.609,48.402C165.539,51.523 163.246,54.605 161.09,58.539C160.703,59.246 160.633,58.91 161.004,58.156C163.957,52.301 168.812,46.785 174.547,42.812C176.359,41.555 179.609,39.754 179.695,39.969C179.707,40.043 179.707,40.102 179.695,40.125ZM180.785,40.008C180.785,40.043 180.738,40.102 180.664,40.137C180.605,40.176 180.547,40.148 180.547,40.09C180.547,40.02 180.605,39.957 180.664,39.957C180.738,39.957 180.785,39.98 180.785,40.008ZM136.715,40.523C136.629,40.605 136.402,40.438 136.402,40.293C136.402,40.223 136.473,40.223 136.582,40.316C136.691,40.402 136.738,40.496 136.715,40.523ZM180.125,40.426C180.09,40.496 179.992,40.559 179.922,40.559C179.848,40.559 179.848,40.484 179.945,40.379C180.113,40.176 180.258,40.223 180.125,40.426ZM136.223,40.676C136.258,40.75 136.211,40.762 136.113,40.727C135.898,40.641 135.863,40.559 136.031,40.559C136.102,40.559 136.188,40.605 136.223,40.676ZM138.07,41.098C143.156,43.906 148.516,48.715 152.055,53.633C153.605,55.781 155.32,58.621 155.164,58.777C155.125,58.816 155.043,58.766 154.984,58.672C152.355,54.375 150.27,51.676 147.199,48.594C145.375,46.785 142.531,44.348 140.984,43.305C139.391,42.227 138.668,41.746 137.879,41.277C137.398,40.988 137,40.715 137,40.652C137,40.512 137.016,40.512 138.07,41.098ZM179.586,40.652C179.586,40.703 179.191,40.977 178.723,41.277C176.574,42.574 173.648,44.684 172.184,45.98C167.867,49.793 164.242,54.113 161.762,58.395C161.531,58.805 161.27,58.945 161.402,58.586C161.449,58.48 161.832,57.797 162.277,57.062C164.785,52.852 167.625,49.469 171.691,45.871C173.109,44.625 175.867,42.656 177.785,41.531C178.277,41.242 178.855,40.906 179.047,40.785C179.441,40.547 179.586,40.512 179.586,40.652ZM180.664,40.605C180.664,40.629 180.582,40.691 180.473,40.727C180.379,40.762 180.328,40.75 180.367,40.676C180.438,40.559 180.664,40.512 180.664,40.605ZM136.762,41.051C136.762,41.121 136.715,41.133 136.641,41.098C136.582,41.062 136.523,40.965 136.523,40.906C136.523,40.832 136.582,40.82 136.641,40.859C136.715,40.895 136.762,40.988 136.762,41.051ZM180.066,40.965C180.066,41 180.016,41.062 179.945,41.098C179.887,41.133 179.824,41.109 179.824,41.051C179.824,40.977 179.887,40.918 179.945,40.918C180.016,40.918 180.066,40.941 180.066,40.965ZM140.242,43.172C141.262,43.879 143.445,45.523 143.598,45.703C143.637,45.738 144.043,46.102 144.5,46.484C145.578,47.406 148.387,50.215 149.309,51.293C149.691,51.75 150.055,52.156 150.09,52.195C150.496,52.555 152.98,56.008 154.023,57.676C154.922,59.125 154.551,58.898 153.543,57.375C152.332,55.562 150.699,53.465 148.996,51.535C148.457,50.91 144.883,47.336 144.258,46.797C142.328,45.094 140.23,43.461 138.418,42.25C137.699,41.781 137.121,41.336 137.121,41.277C137.121,41.133 138.586,42.031 140.242,43.172ZM179.395,41.375C179.332,41.434 178.531,42.008 177.605,42.656C174.129,45.117 172.953,46.113 169.855,49.195C167.242,51.797 165.227,54.195 163.164,57.207C162.613,58.012 162.109,58.672 162.047,58.672C161.918,58.672 163.117,56.738 164.207,55.191C167.289,50.863 171.547,46.566 175.723,43.617C177.332,42.477 179.383,41.156 179.453,41.23C179.488,41.254 179.453,41.324 179.395,41.375ZM138.262,42.512C141.945,44.973 146.191,48.75 149.238,52.277C151.023,54.352 154.133,58.551 153.867,58.551C153.844,58.551 153.398,58 152.883,57.316C151.898,56.031 151.492,55.527 149.836,53.574C147.559,50.898 144.895,48.234 142.219,45.957C140.266,44.301 139.762,43.891 138.477,42.91C137.793,42.395 137.242,41.949 137.242,41.926C137.242,41.852 137.363,41.926 138.262,42.512ZM179.348,41.926C179.348,41.949 179.035,42.199 178.66,42.488C172.461,47.191 168.047,51.605 163.523,57.566C163.105,58.117 162.742,58.539 162.707,58.516C162.527,58.324 166.234,53.465 168.168,51.355C171.164,48.078 175.074,44.684 178.434,42.43C179.262,41.879 179.348,41.84 179.348,41.926ZM139.102,43.797C139.895,44.41 140.73,45.078 140.973,45.285C141.199,45.488 141.559,45.789 141.754,45.945C143.984,47.777 148.012,51.809 149.848,54.039C150.004,54.234 150.305,54.594 150.508,54.82C150.711,55.059 151.383,55.898 151.996,56.691C152.609,57.484 153.16,58.203 153.23,58.273C153.293,58.359 153.316,58.43 153.293,58.43C153.254,58.43 152.621,57.711 151.863,56.836C147.832,52.145 143.672,47.973 138.957,43.93C138.082,43.172 137.363,42.535 137.363,42.5C137.363,42.477 137.434,42.5 137.52,42.562C137.59,42.633 138.309,43.184 139.102,43.797ZM179.227,42.523C179.227,42.551 178.301,43.375 177.164,44.348C172.855,48.055 169.328,51.57 165.621,55.828C162.707,59.188 162.574,59.246 165.059,56.094C166.824,53.848 168.516,51.953 170.816,49.676C173.277,47.227 175.016,45.715 178.445,43.039C179.18,42.477 179.227,42.441 179.227,42.523ZM139.699,44.996C144.164,48.871 148.66,53.453 152.344,57.891C152.5,58.082 151.383,56.957 149.836,55.371C146.297,51.738 144.055,49.496 140.422,45.957C138.836,44.41 137.711,43.293 137.902,43.449C138.105,43.617 138.91,44.312 139.699,44.996ZM176.105,46.039C172.617,49.41 169.855,52.156 166.449,55.672C163.945,58.262 163.836,58.348 165.383,56.57C168.766,52.672 171.98,49.375 175.195,46.508C177.918,44.074 178.914,43.207 178.984,43.207C179.023,43.207 177.727,44.48 176.105,46.039ZM178.027,44.695C178.027,45.105 165.887,57.23 165.492,57.23C165.43,57.23 166.031,56.57 166.809,55.758C168.273,54.246 177.93,44.637 177.992,44.637C178.016,44.637 178.027,44.66 178.027,44.695ZM140.23,46.219C144.211,50.094 151.035,57.004 151.035,57.16C151.035,57.34 148.324,54.773 144.68,51.113C141.02,47.469 138.453,44.758 138.633,44.758C138.68,44.758 139.402,45.414 140.23,46.219ZM145.805,52.672C147.402,54.246 149.02,55.84 149.418,56.211L150.137,56.895L149.367,56.32C146.633,54.246 141.656,49.254 139.375,46.316C139.102,45.957 139.785,46.59 140.898,47.73C142.016,48.883 144.223,51.102 145.805,52.672ZM177.535,45.918C175.172,49.004 170.723,53.512 167.555,56.055C166.402,56.98 166.461,56.906 168.656,54.762C171.262,52.242 176.133,47.324 177.008,46.34C177.547,45.738 177.871,45.488 177.535,45.918ZM141.066,48.836C142.941,50.945 146.047,53.957 148.637,56.199C149.035,56.535 149.07,56.582 148.758,56.367C145.074,53.848 141.945,50.719 139.426,47.035C139.207,46.723 139.258,46.758 139.594,47.156C139.855,47.441 140.516,48.199 141.066,48.836ZM177.199,47C176.934,47.516 175.328,49.543 174.234,50.766C172.496,52.711 170.074,54.867 168.309,56.02L167.891,56.297L168.32,55.898C168.551,55.672 169.172,55.121 169.703,54.664C171.117,53.43 175.062,49.41 176.227,48.02C176.777,47.348 177.258,46.797 177.281,46.797C177.293,46.797 177.258,46.891 177.199,47ZM140.949,49.613C142.137,51.113 144.594,53.574 146.215,54.855C146.945,55.457 147.559,55.973 147.559,55.996C147.559,56.02 147.223,55.816 146.812,55.539C144.152,53.754 141.98,51.57 140.242,48.953C139.605,47.996 139.832,48.199 140.949,49.613ZM176.527,48.68C174.691,51.57 171.777,54.414 168.945,56.078C168.598,56.285 168.824,56.043 169.246,55.758C170.996,54.582 174.02,51.652 175.82,49.375C176.648,48.344 176.91,48.078 176.527,48.68ZM154.934,59.152C154.973,59.211 154.961,59.27 154.887,59.27C154.828,59.27 154.73,59.211 154.695,59.152C154.66,59.078 154.672,59.031 154.742,59.031C154.805,59.031 154.898,59.078 154.934,59.152ZM155.547,59.355C155.461,59.438 155.234,59.27 155.234,59.125C155.234,59.055 155.309,59.055 155.414,59.152C155.523,59.234 155.57,59.332 155.547,59.355ZM161.293,59.258C161.258,59.332 161.16,59.391 161.09,59.391C161.016,59.391 161.016,59.32 161.113,59.211C161.281,59.008 161.426,59.055 161.293,59.258ZM156.172,59.379C156.207,59.473 156.16,59.523 156.062,59.488C155.98,59.461 155.883,59.367 155.859,59.281C155.824,59.188 155.871,59.141 155.965,59.176C156.051,59.199 156.148,59.293 156.172,59.379ZM160.73,59.293C160.703,59.367 160.609,59.461 160.535,59.488C160.453,59.512 160.418,59.461 160.465,59.344C160.551,59.125 160.801,59.078 160.73,59.293ZM160.082,59.449C160.02,59.594 159.711,59.629 158.293,59.629C156.879,59.629 156.566,59.594 156.508,59.449C156.445,59.293 156.699,59.27 158.293,59.27C159.891,59.27 160.141,59.293 160.082,59.449ZM155.211,59.809C155.176,59.848 155.102,59.785 155.066,59.668C154.996,59.5 155.008,59.488 155.125,59.594C155.211,59.68 155.246,59.773 155.211,59.809ZM161.508,59.691C161.473,59.797 161.414,59.859 161.387,59.824C161.352,59.785 161.363,59.715 161.414,59.641C161.52,59.449 161.594,59.488 161.508,59.691ZM155.848,59.895C155.98,60.145 155.98,60.16 155.797,60.004C155.68,59.918 155.594,59.797 155.594,59.738C155.594,59.559 155.703,59.617 155.848,59.895ZM156.434,59.992C156.52,60.145 156.52,60.23 156.445,60.23C156.375,60.23 156.266,60.121 156.195,59.992C156.109,59.836 156.109,59.75 156.184,59.75C156.254,59.75 156.363,59.859 156.434,59.992ZM160.355,60.051C160.309,60.145 160.227,60.23 160.152,60.23C160.07,60.23 160.07,60.16 160.152,59.977C160.309,59.703 160.465,59.75 160.355,60.051ZM160.992,59.797C160.992,59.824 160.91,59.906 160.812,59.992C160.656,60.121 160.645,60.109 160.703,59.941C160.766,59.773 160.992,59.668 160.992,59.797ZM159.793,60.109C159.672,60.328 159.543,60.352 158.293,60.352C157.047,60.352 156.914,60.328 156.793,60.109C156.676,59.871 156.699,59.871 158.293,59.871C159.891,59.871 159.914,59.871 159.793,60.109ZM156.195,60.602C156.195,60.676 156.148,60.688 156.074,60.648C156.016,60.613 155.953,60.52 155.953,60.457C155.953,60.387 156.016,60.375 156.074,60.41C156.148,60.445 156.195,60.543 156.195,60.602ZM160.523,60.625C160.406,60.734 160.395,60.723 160.465,60.555C160.5,60.434 160.574,60.375 160.609,60.41C160.645,60.445 160.609,60.543 160.523,60.625ZM156.723,60.648C156.758,60.746 156.734,60.832 156.688,60.832C156.625,60.832 156.555,60.746 156.508,60.648C156.469,60.555 156.496,60.469 156.543,60.469C156.602,60.469 156.676,60.555 156.723,60.648ZM160.082,60.648C160.031,60.746 159.961,60.832 159.902,60.832C159.852,60.832 159.828,60.746 159.863,60.648C159.914,60.555 159.984,60.469 160.047,60.469C160.094,60.469 160.117,60.555 160.082,60.648ZM159.555,60.688C159.555,60.961 159.195,61.07 158.293,61.07C157.395,61.07 157.035,60.961 157.035,60.688C157.035,60.637 157.598,60.59 158.293,60.59C158.988,60.59 159.555,60.637 159.555,60.688ZM157.035,61.441C157.035,61.516 156.984,61.527 156.914,61.488C156.855,61.453 156.793,61.359 156.793,61.297C156.793,61.227 156.855,61.215 156.914,61.25C156.984,61.285 157.035,61.383 157.035,61.441ZM159.695,61.453C159.613,61.539 159.555,61.551 159.555,61.477C159.555,61.309 159.695,61.164 159.781,61.25C159.805,61.285 159.77,61.383 159.695,61.453ZM159.312,61.406C159.312,61.656 158.965,61.789 158.27,61.789C157.645,61.789 157.504,61.754 157.395,61.551C157.273,61.32 157.297,61.309 158.293,61.309C158.859,61.309 159.312,61.359 159.312,61.406ZM157.25,62.211C157.215,62.246 157.141,62.188 157.105,62.066C157.035,61.898 157.047,61.887 157.168,61.992C157.25,62.078 157.285,62.172 157.25,62.211ZM159.469,62.09C159.434,62.199 159.375,62.258 159.348,62.223C159.312,62.188 159.324,62.113 159.375,62.043C159.48,61.852 159.555,61.887 159.469,62.09ZM158.988,62.27C158.941,62.473 158.82,62.508 158.293,62.508C157.766,62.508 157.645,62.473 157.598,62.27C157.539,62.055 157.598,62.031 158.293,62.031C158.988,62.031 159.051,62.055 158.988,62.27ZM158.832,62.797C158.832,63.074 158.629,63.23 158.281,63.23C158.055,63.23 157.875,63.207 157.875,63.18C157.875,63.156 157.84,63.051 157.801,62.941C157.742,62.785 157.824,62.75 158.281,62.75C158.582,62.75 158.832,62.773 158.832,62.797ZM158.594,63.711C158.594,63.891 158.508,63.949 158.293,63.949C158.078,63.949 157.992,63.891 157.992,63.711C157.992,63.527 158.078,63.469 158.293,63.469C158.508,63.469 158.594,63.527 158.594,63.711ZM158.473,64.273C158.473,64.395 158.234,64.754 158.234,64.645C158.234,64.609 158.199,64.488 158.16,64.379C158.113,64.25 158.148,64.188 158.281,64.188C158.391,64.188 158.473,64.227 158.473,64.273Z" style="fill:rgb(255,249,232);fill-rule:nonzero;"/>
            </g>
        </g>
    </g>
</svg>
